<svg fill="none" height="24" viewBox="0 0 24 24" width="24" xmlns="http://www.w3.org/2000/svg"><path d="m12 10.5v-3.5m0 7h.01m-5.01 4v2.3355c0 .5329 0 .7993.10923.9361.09499.119.23904.1883.39131.1881.17509-.0002.38313-.1666.79922-.4995l2.38544-1.9084c.4873-.3898.731-.5847 1.0023-.7233.2407-.123.4969-.2129.7617-.2672.2985-.0613.6105-.0613 1.2345-.0613h2.5163c1.6802 0 2.5202 0 3.162-.327.5645-.2876 1.0234-.7465 1.311-1.311.327-.6418.327-1.4818.327-3.162v-5.4c0-1.68016 0-2.52024-.327-3.16197-.2876-.56449-.7465-1.02343-1.311-1.31105-.6418-.32698-1.4818-.32698-3.162-.32698h-8.4c-1.68016 0-2.52024 0-3.16197.32698-.56449.28762-1.02343.74656-1.31105 1.31105-.32698.64173-.32698 1.48181-.32698 3.16197v6.2c0 .93 0 1.395.10222 1.7765.2774 1.0352 1.08605 1.8439 2.12132 2.1213.3815.1022.84649.1022 1.77646.1022z" stroke="#171717" stroke-linecap="round" stroke-linejoin="round" stroke-width="2"/></svg>