<svg fill="none" height="24" viewBox="0 0 24 24" width="24" xmlns="http://www.w3.org/2000/svg"><path d="m7.5 12h.01m4.49 0h.01m4.49 0h.01m-4.51 9c4.9706 0 9-4.0294 9-9 0-4.97056-4.0294-9-9-9-4.97056 0-9 4.02944-9 9 0 1.1971.23374 2.3397.65806 3.3845.08121.2.12182.3.13994.3808.01772.079.0242.1375.02421.2186.00001.0828-.01503.173-.0451.3535l-.59298 3.5578c-.0621.3726-.09315.5589-.03537.6936.05057.1179.14452.2119.26242.2624.13471.0578.321.0268.69358-.0353l3.55789-.593c.18044-.0301.27065-.0451.35348-.0451.08102 0 .13953.0065.21859.0242.08082.0181.1808.0587.38077.1399 1.04481.4244 2.18741.6581 3.38451.6581zm-4-9c0 .2761-.22386.5-.5.5s-.5-.2239-.5-.5.22386-.5.5-.5.5.2239.5.5zm4.5 0c0 .2761-.2239.5-.5.5s-.5-.2239-.5-.5.2239-.5.5-.5.5.2239.5.5zm4.5 0c0 .2761-.2239.5-.5.5s-.5-.2239-.5-.5.2239-.5.5-.5.5.2239.5.5z" stroke="#171717" stroke-linecap="round" stroke-linejoin="round" stroke-width="2"/></svg>