<svg fill="none" height="24" viewBox="0 0 24 24" width="24" xmlns="http://www.w3.org/2000/svg"><path d="m14 2.26953v4.13054c0 .56005 0 .84008.109 1.05399.0959.18816.2488.34114.437.43702.2139.10899.4939.10899 1.054.10899h4.1305m-5.7305 8.99993h-6m8-4h-8m12-3.01178v7.21178c0 1.6802 0 2.5202-.327 3.162-.2876.5645-.7465 1.0234-1.311 1.311-.6418.327-1.4818.327-3.162.327h-6.4c-1.68016 0-2.52024 0-3.16197-.327-.56449-.2876-1.02343-.7465-1.31105-1.311-.32698-.6418-.32698-1.4818-.32698-3.162v-10.4c0-1.68016 0-2.52024.32698-3.16197.28762-.56449.74656-1.02343 1.31105-1.31105.64173-.32698 1.48181-.32698 3.16197-.32698h3.2118c.7337 0 1.1006 0 1.4459.08289.3061.07349.5987.1947.8672.35919.3027.18552.5621.44495 1.081.96381l3.1882 3.18822c.5189.51886.7783.77829.9638 1.08104.1645.26841.2857.56105.3592.86715.0829.34527.0829.71215.0829 1.44592z" stroke="#171717" stroke-linecap="round" stroke-linejoin="round" stroke-width="2"/></svg>