<svg fill="none" height="24" viewBox="0 0 24 24" width="24" xmlns="http://www.w3.org/2000/svg"><path d="m2 4.6c0-.56005 0-.84008.10899-1.05399.09588-.18816.24886-.34114.43702-.43702.21391-.10899.49394-.10899 1.05399-.10899h16.8c.5601 0 .8401 0 1.054.10899.1882.09588.3411.24886.437.43702.109.21391.109.49394.109 1.05399v.66939c0 .2688 0 .4032-.0328.52817-.0292.11075-.0771.21567-.1417.3102-.0729.10667-.1745.19469-.3776.37074l-6.3958 5.543c-.2031.176-.3047.2641-.3776.3707-.0646.0946-.1125.1995-.1417.3102-.0328.125-.0328.2594-.0328.5282v5.2278c0 .1955 0 .2933-.0315.3779-.0279.0747-.0732.1416-.1322.1952-.0668.0607-.1576.097-.3392.1697l-3.4 1.36c-.3675.147-.5513.2205-.69883.1898-.129-.0268-.24222-.1034-.31502-.2133-.08325-.1255-.08325-.3235-.08325-.7193v-6.5878c0-.2688 0-.4032-.03285-.5282-.0291-.1107-.07701-.2156-.14164-.3102-.07293-.1066-.17449-.1947-.37762-.3707l-6.39578-5.543c-.20313-.17605-.30469-.26407-.37762-.37074-.06463-.09453-.11254-.19945-.14164-.3102-.03285-.12497-.03285-.25937-.03285-.52817z" stroke="#171717" stroke-linecap="round" stroke-linejoin="round" stroke-width="2"/></svg>