<svg fill="none" height="24" viewBox="0 0 24 24" width="24" xmlns="http://www.w3.org/2000/svg"><path d="m12 8v4m0 4h.01m-10.01-7.47726v6.95456c0 .2445 0 .3668.02763.4819.0245.1021.0649.1996.11973.2891.06184.1009.14832.1874.32127.3603l4.92274 4.9228c.17295.1729.25943.2594.36035.3212.08947.0549.18701.0953.28905.1198.11509.0276.23738.0276.48197.0276h6.95456c.2445 0 .3668 0 .4819-.0276.1021-.0245.1996-.0649.2891-.1198.1009-.0618.1874-.1483.3603-.3212l4.9228-4.9228c.1729-.1729.2594-.2594.3212-.3603.0549-.0895.0953-.187.1198-.2891.0276-.1151.0276-.2374.0276-.4819v-6.95456c0-.24459 0-.36688-.0276-.48197-.0245-.10204-.0649-.19958-.1198-.28905-.0618-.10092-.1483-.1874-.3212-.36035l-4.9228-4.92274c-.1729-.17295-.2594-.25943-.3603-.32127-.0895-.05483-.187-.09523-.2891-.11973-.1151-.02763-.2374-.02763-.4819-.02763h-6.95456c-.24459 0-.36688 0-.48197.02763-.10204.0245-.19958.0649-.28905.11973-.10092.06184-.1874.14832-.36035.32127l-4.92274 4.92274c-.17295.17295-.25943.25943-.32127.36035-.05483.08947-.09523.18701-.11973.28905-.02763.11509-.02763.23738-.02763.48197z" stroke="#171717" stroke-linecap="round" stroke-linejoin="round" stroke-width="2"/></svg>